<svg width="36" height="36" viewBox="0 0 36 36" fill="none" xmlns="http://www.w3.org/2000/svg">
<path d="M31.5 31.5L22.5 22.5L31.5 31.5ZM25.5 15C25.5 16.3789 25.2284 17.7443 24.7007 19.0182C24.1731 20.2921 23.3996 21.4496 22.4246 22.4246C21.4496 23.3996 20.2921 24.1731 19.0182 24.7007C17.7443 25.2284 16.3789 25.5 15 25.5C13.6211 25.5 12.2557 25.2284 10.9818 24.7007C9.70791 24.1731 8.55039 23.3996 7.57538 22.4246C6.60036 21.4496 5.82694 20.2921 5.29927 19.0182C4.77159 17.7443 4.5 16.3789 4.5 15C4.5 12.2152 5.60625 9.54451 7.57538 7.57538C9.54451 5.60625 12.2152 4.5 15 4.5C17.7848 4.5 20.4555 5.60625 22.4246 7.57538C24.3938 9.54451 25.5 12.2152 25.5 15Z" stroke="#7B7B7B" stroke-width="2" stroke-linecap="round" stroke-linejoin="round"/>
<path d="M31.5 31.5L22.5 22.5L31.5 31.5ZM25.5 15C25.5 16.3789 25.2284 17.7443 24.7007 19.0182C24.1731 20.2921 23.3996 21.4496 22.4246 22.4246C21.4496 23.3996 20.2921 24.1731 19.0182 24.7007C17.7443 25.2284 16.3789 25.5 15 25.5C13.6211 25.5 12.2557 25.2284 10.9818 24.7007C9.70791 24.1731 8.55039 23.3996 7.57538 22.4246C6.60036 21.4496 5.82694 20.2921 5.29927 19.0182C4.77159 17.7443 4.5 16.3789 4.5 15C4.5 12.2152 5.60625 9.54451 7.57538 7.57538C9.54451 5.60625 12.2152 4.5 15 4.5C17.7848 4.5 20.4555 5.60625 22.4246 7.57538C24.3938 9.54451 25.5 12.2152 25.5 15Z" stroke="#7B7B7B" stroke-width="2" stroke-linecap="round" stroke-linejoin="round"/>
</svg>
